<?xml version="1.0" standalone="no"?>
<!DOCTYPE svg PUBLIC "-//W3C//DTD SVG 20010904//EN"
 "http://www.w3.org/TR/2001/REC-SVG-20010904/DTD/svg10.dtd">
<svg version="1.0" xmlns="http://www.w3.org/2000/svg"
 width="661.000000pt" height="431.000000pt" viewBox="0 0 661.000000 431.000000"
 preserveAspectRatio="xMidYMid meet">

<g transform="translate(0.000000,431.000000) scale(0.100000,-0.100000)"
fill="#000000" stroke="none">
<path d="M52 4257 l-52 -53 0 -2102 0 -2102 3253 0 3253 0 52 53 52 53 0 2102
0 2102 -3253 0 -3253 0 -52 -53z m6546 -2057 l2 -2096 -45 -44 -45 -44 0 2094
0 2094 43 46 42 45 -45 -42 -46 -43 -3244 0 -3244 0 44 45 44 45 3246 -2 3245
-3 3 -2095z m-98 -95 l0 -2095 -3245 0 -3245 0 0 2095 0 2095 3245 0 3245 0 0
-2095z"/>
<path d="M450 4136 c0 -7 -9 -16 -21 -19 -30 -8 -23 -61 9 -65 20 -3 22 0 22
47 0 28 -2 51 -5 51 -3 0 -5 -6 -5 -14z m0 -51 c0 -16 -6 -25 -15 -25 -9 0
-15 9 -15 25 0 16 6 25 15 25 9 0 15 -9 15 -25z"/>
<path d="M52 4093 c1 -44 2 -45 5 -10 2 20 8 35 14 32 5 -3 6 1 3 9 -12 32
-24 15 -22 -31z"/>
<path d="M106 4124 c-3 -8 -2 -12 3 -9 6 3 12 -12 14 -32 3 -35 4 -34 5 10 2
46 -10 63 -22 31z"/>
<path d="M761 4093 c1 -26 4 -38 6 -25 5 27 19 28 35 2 7 -11 17 -20 22 -20 4
0 2 7 -5 17 -8 9 -14 28 -14 42 0 19 -6 27 -22 29 -21 3 -23 0 -22 -45z m39
22 c0 -8 -7 -15 -15 -15 -8 0 -15 7 -15 15 0 8 7 15 15 15 8 0 15 -7 15 -15z"/>
<path d="M1042 4099 c2 -24 8 -44 16 -45 7 -1 8 0 2 3 -12 6 -13 50 -1 55 5 2
2 9 -6 16 -12 12 -14 8 -11 -29z"/>
<path d="M154 4106 c-11 -28 1 -51 26 -53 22 -1 22 -1 3 4 -13 2 -23 8 -23 13
0 5 10 11 23 13 l22 4 -22 2 c-13 0 -23 6 -23 12 0 6 9 9 20 6 11 -3 18 -1 14
4 -8 14 -34 11 -40 -5z"/>
<path d="M226 4104 c-6 -15 -4 -15 11 -3 10 7 20 15 22 16 2 2 -3 3 -11 3 -9
0 -19 -7 -22 -16z"/>
<path d="M279 4103 c-12 -16 -12 -17 1 -7 8 6 22 14 30 17 13 5 12 6 -1 6 -9
1 -23 -7 -30 -16z"/>
<path d="M344 4106 c-11 -28 0 -51 26 -53 22 -1 22 -1 3 4 -29 6 -30 23 -2 23
14 0 19 5 17 17 -4 23 -36 29 -44 9z m36 -6 c0 -5 -7 -10 -15 -10 -8 0 -15 5
-15 10 0 6 7 10 15 10 8 0 15 -4 15 -10z"/>
<path d="M503 4114 c23 -7 22 -20 -4 -27 -27 -7 -20 -31 10 -35 20 -3 22 0 19
30 -2 24 -8 33 -23 35 -16 1 -16 1 -2 -3z m17 -44 c0 -5 -7 -10 -16 -10 -8 0
-12 5 -9 10 3 6 10 10 16 10 5 0 9 -4 9 -10z"/>
<path d="M562 4083 c1 -37 1 -37 5 -6 3 23 10 33 26 36 18 4 17 5 -5 6 -26 1
-28 -2 -26 -36z"/>
<path d="M647 4113 c-4 -3 -7 -17 -7 -30 0 -26 26 -41 42 -25 8 8 5 9 -11 5
-17 -4 -21 -1 -21 21 0 28 17 34 40 14 12 -11 12 -10 1 5 -14 17 -33 22 -44
10z"/>
<path d="M843 4108 c-18 -24 -3 -58 25 -57 12 0 9 4 -8 12 l-25 11 28 4 c15 2
27 7 27 11 0 5 -11 6 -25 3 -31 -6 -33 6 -2 18 15 6 17 9 6 9 -9 1 -21 -5 -26
-11z"/>
<path d="M915 4109 c-4 -6 -4 -13 -1 -16 3 -4 6 -1 6 5 0 6 8 13 18 15 15 4
15 5 0 6 -9 0 -20 -4 -23 -10z"/>
<path d="M974 4106 c-11 -28 0 -51 26 -53 22 -1 22 -1 3 4 -29 6 -30 23 -2 23
14 0 19 5 17 17 -4 23 -36 29 -44 9z m36 -6 c0 -5 -7 -10 -15 -10 -8 0 -15 5
-15 10 0 6 7 10 15 10 8 0 15 -4 15 -10z"/>
<path d="M1113 4114 c23 -7 22 -20 -3 -27 -30 -8 -25 -37 6 -37 23 0 25 3 22
32 -2 24 -8 33 -23 35 -16 1 -16 1 -2 -3z m17 -44 c0 -5 -7 -10 -15 -10 -8 0
-15 5 -15 10 0 6 7 10 15 10 8 0 15 -4 15 -10z"/>
<path d="M1167 4113 c-12 -11 -8 -22 13 -33 14 -7 20 -7 20 0 0 5 -7 10 -15
10 -21 0 -19 18 3 23 14 4 14 5 1 6 -9 0 -19 -2 -22 -6z"/>
<path d="M600 4071 c0 -6 4 -13 10 -16 6 -3 7 1 4 9 -7 18 -14 21 -14 7z"/>
<path d="M912 4064 c9 -9 21 -15 27 -13 6 2 -2 10 -17 17 -25 11 -25 11 -10
-4z"/>
<path d="M288 4058 c5 -5 16 -8 23 -6 8 3 3 7 -10 11 -17 4 -21 3 -13 -5z"/>
<path d="M1168 4053 c6 -2 18 -2 25 0 6 3 1 5 -13 5 -14 0 -19 -2 -12 -5z"/>
<path d="M333 4033 c164 -2 430 -2 590 0 161 1 27 2 -298 2 -324 0 -456 -1
-292 -2z"/>
<path d="M2100 3305 l0 -305 1205 0 1205 0 0 305 0 305 -1205 0 -1205 0 0
-305z m2400 0 l0 -295 -1195 0 -1195 0 0 295 0 295 1195 0 1195 0 0 -295z"/>
<path d="M2551 3303 c1 -37 4 -56 6 -40 5 34 29 35 55 2 11 -14 24 -25 30 -25
7 0 1 11 -11 24 -20 21 -21 27 -9 45 18 29 0 55 -41 59 l-31 3 1 -68z m64 27
c0 -9 -11 -16 -27 -18 -23 -3 -28 1 -28 18 0 17 5 21 28 18 16 -2 27 -9 27
-18z"/>
<path d="M3028 3352 c-3 -10 -2 -38 1 -62 5 -37 10 -46 29 -48 27 -4 29 14 2
21 -14 3 -20 14 -20 31 0 19 5 26 20 26 11 0 20 5 20 10 0 6 -9 10 -21 10 -11
0 -18 4 -14 9 3 5 1 12 -4 15 -5 3 -11 -2 -13 -12z"/>
<path d="M3849 3353 c-4 -38 3 -89 13 -100 12 -15 38 -17 38 -3 0 6 -7 10 -15
10 -10 0 -15 10 -15 30 0 20 5 30 15 30 8 0 15 5 15 10 0 6 -7 10 -15 10 -8 0
-15 7 -15 15 0 21 -20 19 -21 -2z"/>
<path d="M2676 3324 c-9 -8 -16 -24 -16 -34 0 -37 58 -68 75 -40 4 6 -7 10
-24 10 -17 0 -31 5 -31 10 0 6 16 10 35 10 37 0 42 9 25 41 -13 23 -43 25 -64
3z m54 -14 c0 -5 -11 -10 -25 -10 -14 0 -25 5 -25 10 0 6 11 10 25 10 14 0 25
-4 25 -10z"/>
<path d="M2786 3324 c-35 -34 -9 -93 35 -79 15 5 20 3 17 -6 -3 -8 -17 -15
-31 -17 -33 -4 -36 -22 -4 -22 36 0 47 19 47 80 0 52 -2 56 -24 58 -14 1 -32
-5 -40 -14z m52 -31 c-3 -29 -32 -43 -50 -25 -18 18 1 52 28 52 22 0 25 -4 22
-27z"/>
<path d="M2893 3290 c0 -30 2 -43 4 -27 2 15 2 39 0 55 -2 15 -4 2 -4 -28z"/>
<path d="M2940 3324 c-12 -14 -12 -18 5 -30 10 -8 25 -14 32 -14 7 0 13 -5 13
-11 0 -7 -12 -10 -30 -7 -19 3 -29 1 -27 -6 2 -6 17 -11 33 -11 22 0 30 5 32
22 3 17 -3 24 -22 29 -34 8 -34 28 -1 21 16 -3 24 0 22 7 -6 18 -43 18 -57 0z"/>
<path d="M3100 3288 c0 -26 5 -48 10 -48 6 0 10 16 10 36 0 27 5 37 20 41 30
8 24 20 -10 20 -29 0 -30 -2 -30 -49z"/>
<path d="M3180 3330 c0 -5 15 -10 33 -11 l32 0 -35 -12 c-24 -8 -36 -19 -38
-34 -3 -23 0 -25 51 -27 25 -2 27 1 27 34 0 20 -5 41 -12 48 -15 15 -58 16
-58 2z m60 -50 c0 -6 -7 -13 -15 -16 -20 -8 -48 3 -40 16 8 13 55 13 55 0z"/>
<path d="M3292 3285 c1 -44 2 -46 5 -12 3 29 10 40 29 47 33 13 30 20 -6 17
-29 -2 -30 -3 -28 -52z"/>
<path d="M3436 3324 c-25 -24 -20 -63 9 -76 19 -9 28 -9 37 0 9 9 6 12 -14 12
-14 0 -28 7 -32 15 -10 27 5 45 38 45 24 0 27 3 16 10 -21 14 -36 12 -54 -6z"/>
<path d="M3524 3295 l1 -50 38 -1 37 -1 0 48 c0 57 -17 66 -22 12 -2 -30 -7
-38 -23 -38 -16 0 -21 9 -26 40 -7 38 -7 38 -5 -10z"/>
<path d="M3642 3328 c-7 -7 -12 -24 -12 -38 0 -14 5 -31 12 -38 15 -15 54 -16
63 -2 4 6 -6 10 -24 10 -16 0 -33 5 -36 10 -4 6 8 10 29 10 28 0 36 4 36 18 0
22 -19 42 -40 42 -9 0 -21 -5 -28 -12z m53 -18 c4 -6 -7 -10 -25 -10 -18 0
-29 4 -25 10 3 6 15 10 25 10 10 0 22 -4 25 -10z"/>
<path d="M3741 3286 c2 -51 2 -51 8 -11 5 34 10 40 31 40 21 0 26 -6 31 -40
l6 -40 2 41 c1 47 -11 62 -51 62 -27 0 -28 -2 -27 -52z"/>
<path d="M3930 3330 c0 -5 12 -10 28 -11 27 -1 26 -1 -6 -12 -28 -8 -33 -14
-30 -36 3 -23 8 -26 41 -27 35 -1 37 1 37 28 0 43 -17 68 -45 68 -14 0 -25 -4
-25 -10z m50 -55 c0 -9 -9 -15 -25 -15 -24 0 -32 10 -18 23 12 13 43 7 43 -8z"/>
<path d="M4040 3255 c0 -8 5 -15 10 -15 6 0 10 7 10 15 0 8 -4 15 -10 15 -5 0
-10 -7 -10 -15z"/>
<path d="M2650 2455 l0 -255 655 0 655 0 0 255 0 255 -655 0 -655 0 0 -255z
m1300 0 l0 -245 -645 0 -645 0 0 245 0 245 645 0 645 0 0 -245z"/>
<path d="M2773 2540 c0 -30 2 -43 4 -27 2 15 2 39 0 55 -2 15 -4 2 -4 -28z"/>
<path d="M2801 2525 l2 -40 6 35 c4 22 12 35 21 35 9 0 17 -13 21 -35 6 -34 6
-34 8 -5 1 39 -10 54 -37 52 -19 -1 -22 -7 -21 -42z"/>
<path d="M2886 2561 c-4 -5 3 -7 14 -4 12 3 20 0 20 -6 0 -7 5 -9 10 -6 6 4 8
11 5 16 -8 12 -42 12 -49 0z"/>
<path d="M2964 2556 c-3 -8 -4 -27 -1 -43 3 -24 4 -23 6 9 0 20 7 39 14 41 9
4 9 6 -1 6 -7 1 -15 -5 -18 -13z"/>
<path d="M3010 2555 c-18 -21 -4 -65 20 -65 10 0 21 4 24 8 3 5 -4 8 -16 8
-12 -1 -23 5 -25 12 -3 7 6 12 24 13 l28 1 -30 8 c-24 5 -27 8 -13 14 9 4 22
4 29 0 8 -4 9 -3 5 4 -10 16 -31 15 -46 -3z"/>
<path d="M3087 2563 c-13 -13 -7 -31 13 -36 11 -3 20 -11 20 -17 0 -8 -8 -10
-21 -7 -16 4 -19 3 -11 -5 14 -14 42 -3 42 16 0 8 -9 18 -20 21 -26 8 -26 29
0 22 11 -3 18 -1 14 4 -6 11 -28 12 -37 2z"/>
<path d="M3154 2556 c-16 -41 20 -86 47 -59 6 6 1 9 -12 9 -12 -1 -24 5 -26
12 -3 7 5 12 21 12 14 0 26 4 26 9 0 4 -11 6 -25 3 -14 -2 -25 0 -25 6 0 6 10
13 23 15 l22 4 -23 2 c-12 0 -25 -5 -28 -13z"/>
<path d="M3274 2530 c1 -23 6 -36 16 -37 20 -4 47 14 36 24 -5 4 -11 2 -13 -4
-9 -25 -32 -13 -36 20 l-4 32 1 -35z"/>
<path d="M3352 2528 l1 -43 4 38 c3 23 9 37 18 37 9 0 15 -14 18 -37 l4 -38
-1 40 c-1 33 -5 41 -23 43 -21 3 -23 0 -21 -40z"/>
<path d="M3470 2555 c-15 -18 -10 -45 12 -59 12 -7 21 -7 28 0 8 8 4 10 -12
10 -18 -1 -23 4 -23 24 0 19 5 25 22 24 12 0 20 3 17 8 -8 13 -30 9 -44 -7z"/>
<path d="M3542 2558 c-16 -16 -15 -43 3 -58 17 -14 45 -7 45 12 0 10 -3 9 -9
-1 -14 -21 -43 -5 -39 21 4 28 34 36 42 11 4 -15 5 -15 3 2 -3 23 -27 31 -45
13z"/>
<path d="M3611 2525 c2 -33 3 -35 6 -10 2 17 11 35 20 42 13 10 13 12 -6 10
-18 -1 -21 -7 -20 -42z"/>
<path d="M3664 2556 c-3 -8 -4 -27 -1 -43 3 -24 4 -23 6 9 0 20 7 39 14 41 9
4 9 6 -1 6 -7 1 -15 -5 -18 -13z"/>
<path d="M3710 2555 c-18 -21 -4 -65 20 -65 10 0 21 4 24 8 3 5 -4 8 -16 8
-12 -1 -23 5 -25 12 -3 7 6 12 24 13 l28 1 -30 8 c-24 5 -27 8 -13 14 9 4 22
4 29 0 8 -4 9 -3 5 4 -10 16 -31 15 -46 -3z"/>
<path d="M3784 2556 c-11 -28 0 -61 20 -61 27 0 44 30 30 53 -15 22 -43 27
-50 8z m41 -26 c0 -16 -6 -26 -17 -28 -14 -3 -18 3 -18 28 0 25 4 31 18 28 11
-2 17 -12 17 -28z"/>
<path d="M2923 2514 c-3 -9 -13 -14 -24 -11 -11 3 -17 1 -13 -4 10 -17 42 -9
47 11 6 24 -1 27 -10 4z"/>
<path d="M2880 2468 c0 -5 9 -8 19 -8 11 0 22 3 24 8 3 4 -6 7 -19 7 -13 0
-24 -3 -24 -7z"/>
<path d="M2773 2370 c0 -30 2 -43 4 -27 2 15 2 39 0 55 -2 15 -4 2 -4 -28z"/>
<path d="M2949 2409 c-2 -29 3 -74 9 -81 4 -4 6 13 5 38 -1 43 -12 74 -14 43z"/>
<path d="M3385 2409 c-4 -6 -5 -12 -2 -15 2 -3 7 2 10 11 7 17 1 20 -8 4z"/>
<path d="M3414 2381 c1 -30 7 -47 19 -55 29 -19 52 4 53 55 1 24 0 33 -2 19
-12 -66 -14 -71 -37 -68 -18 2 -23 12 -28 48 l-7 45 2 -44z"/>
<path d="M2700 2385 c-18 -21 -4 -65 20 -65 10 0 21 4 24 8 3 5 -4 8 -16 8
-12 -1 -23 5 -25 12 -3 7 6 12 24 13 l28 1 -30 8 c-24 5 -27 8 -13 14 9 4 22
4 29 0 8 -4 9 -3 5 4 -10 16 -31 15 -46 -3z"/>
<path d="M2804 2386 c-16 -42 20 -86 48 -58 6 6 0 8 -16 5 -19 -4 -26 -1 -26
11 0 11 9 16 26 16 20 0 25 4 20 16 -3 9 -6 18 -6 20 0 11 -41 2 -46 -10z m41
-6 c3 -5 -3 -10 -14 -10 -12 0 -21 5 -21 10 0 6 6 10 14 10 8 0 18 -4 21 -10z"/>
<path d="M2885 2389 c-4 -6 -4 -13 -1 -16 3 -4 6 -1 6 6 0 8 8 11 20 8 11 -3
18 -1 14 4 -7 12 -31 11 -39 -2z"/>
<path d="M2992 2358 c1 -41 1 -41 5 -8 3 19 10 38 16 42 8 5 6 8 -5 8 -15 0
-18 -8 -16 -42z"/>
<path d="M3042 2388 c-16 -16 -15 -43 3 -58 17 -14 45 -7 45 12 0 10 -3 9 -9
-1 -14 -21 -43 -5 -39 21 4 28 34 36 42 11 4 -15 5 -15 3 2 -3 23 -27 31 -45
13z"/>
<path d="M3120 2385 c-8 -10 -9 -15 -1 -15 6 0 11 5 11 10 0 6 6 10 14 10 10
0 16 -14 19 -37 l4 -38 -1 40 c-1 44 -23 58 -46 30z"/>
<path d="M3193 2360 c0 -25 2 -35 4 -22 2 12 2 32 0 45 -2 12 -4 2 -4 -23z"/>
<path d="M3224 2386 c-11 -29 1 -61 24 -64 12 -2 22 1 22 6 0 6 -9 8 -20 5
-17 -5 -20 0 -20 27 0 27 3 32 20 27 11 -3 18 -1 14 4 -8 14 -34 11 -40 -5z"/>
<path d="M3294 2386 c-11 -28 0 -61 20 -61 27 0 44 30 30 53 -15 22 -43 27
-50 8z m41 -26 c0 -36 -29 -33 -33 3 -3 23 0 28 15 25 12 -2 18 -12 18 -28z"/>
<path d="M3517 2393 c-13 -13 -7 -32 13 -38 11 -3 20 -11 20 -17 0 -6 -9 -8
-20 -5 -11 3 -20 1 -20 -5 0 -5 10 -8 22 -6 30 4 35 34 9 43 -27 8 -27 29 -1
22 11 -3 18 -1 14 4 -6 11 -28 12 -37 2z"/>
<path d="M3584 2360 c1 -31 4 -35 28 -36 15 -1 25 2 23 7 -3 4 -14 5 -24 2
-16 -4 -20 1 -24 29 l-4 33 1 -35z"/>
<path d="M3660 2390 c-11 -8 -8 -9 13 -4 34 8 35 -9 1 -25 -32 -14 -26 -36 10
-37 25 -1 27 2 24 35 -3 38 -21 49 -48 31z m40 -40 c0 -13 -28 -25 -38 -16 -3
4 0 11 8 16 20 13 30 12 30 0z"/>
<path d="M3744 2386 c-3 -8 -4 -27 -1 -43 3 -24 4 -23 6 9 0 20 7 39 14 41 9
4 9 6 -1 6 -7 1 -15 -5 -18 -13z"/>
<path d="M3783 2360 c0 -25 2 -35 4 -22 2 12 2 32 0 45 -2 12 -4 2 -4 -23z"/>
<path d="M3822 2388 c-16 -16 -15 -43 3 -58 17 -14 45 -7 45 12 0 10 -3 9 -9
-1 -12 -19 -41 -6 -41 19 0 25 28 38 42 19 8 -12 9 -11 5 1 -5 19 -29 24 -45
8z"/>
<path d="M3623 2375 c0 -8 4 -12 9 -9 5 3 6 10 3 15 -9 13 -12 11 -12 -6z"/>
<path d="M2880 2342 c0 -18 29 -27 43 -13 9 9 8 11 -7 5 -11 -4 -21 -2 -27 7
-6 10 -9 11 -9 1z"/>
<path d="M2650 1855 l0 -255 655 0 655 0 0 255 0 255 -655 0 -655 0 0 -255z
m1300 0 l0 -245 -645 0 -645 0 0 245 0 245 645 0 645 0 0 -245z"/>
<path d="M2943 1940 c0 -30 2 -43 4 -27 2 15 2 39 0 55 -2 15 -4 2 -4 -28z"/>
<path d="M2981 1925 l2 -40 6 35 c4 22 12 35 21 35 9 0 17 -13 21 -35 6 -34 6
-34 8 -5 1 39 -10 54 -37 52 -19 -1 -22 -7 -21 -42z"/>
<path d="M3066 1961 c-4 -5 3 -7 14 -4 11 3 20 0 20 -6 0 -6 4 -11 8 -11 5 0
9 7 9 15 0 16 -42 21 -51 6z"/>
<path d="M3144 1956 c-3 -8 -4 -27 -1 -43 3 -24 4 -23 6 9 0 20 7 39 14 41 9
4 9 6 -1 6 -7 1 -15 -5 -18 -13z"/>
<path d="M3190 1955 c-15 -18 -10 -45 12 -59 12 -7 21 -7 28 0 8 8 4 10 -11
10 -12 -1 -24 5 -26 12 -3 7 6 12 24 13 l28 1 -30 8 c-24 5 -27 8 -13 14 9 4
22 4 29 0 8 -4 9 -3 5 4 -10 16 -31 15 -46 -3z"/>
<path d="M3267 1963 c-13 -13 -7 -31 13 -36 11 -3 20 -11 20 -17 0 -8 -8 -10
-21 -7 -16 4 -19 3 -11 -5 14 -14 42 -3 42 16 0 8 -9 18 -20 21 -26 8 -26 29
0 22 11 -3 18 -1 14 4 -6 11 -28 12 -37 2z"/>
<path d="M3334 1956 c-16 -42 20 -86 48 -58 6 6 0 8 -16 5 -19 -4 -26 -1 -26
11 0 11 9 16 26 16 20 0 25 4 20 16 -3 9 -6 18 -6 20 0 11 -41 2 -46 -10z m41
-6 c3 -5 -3 -10 -14 -10 -12 0 -21 5 -21 10 0 6 6 10 14 10 8 0 18 -4 21 -10z"/>
<path d="M3454 1936 c1 -26 6 -41 16 -43 10 -3 11 -2 3 4 -6 4 -13 24 -16 43
-4 34 -4 33 -3 -4z"/>
<path d="M3493 1930 c0 -25 2 -35 4 -22 2 12 2 32 0 45 -2 12 -4 2 -4 -23z"/>
<path d="M3532 1928 l1 -43 4 38 c3 23 9 37 18 37 9 0 15 -14 18 -37 l4 -38
-1 40 c-1 33 -5 41 -23 43 -21 3 -23 0 -21 -40z"/>
<path d="M3606 1962 c-3 -5 6 -7 19 -4 33 6 32 -14 -1 -22 -35 -9 -29 -41 9
-42 26 -1 28 1 25 35 -2 28 -8 37 -25 39 -11 2 -24 -1 -27 -6z m44 -42 c0 -13
-28 -25 -38 -16 -3 4 0 11 8 16 20 13 30 12 30 0z"/>
<path d="M3100 1909 c0 -6 -9 -9 -20 -6 -11 3 -18 1 -14 -4 9 -15 44 -10 44 6
0 8 -2 15 -5 15 -3 0 -5 -5 -5 -11z"/>
<path d="M3060 1868 c0 -5 9 -8 19 -8 11 0 22 3 24 8 3 4 -6 7 -19 7 -13 0
-24 -3 -24 -7z"/>
<path d="M3490 1822 c0 -4 10 -9 22 -9 18 -2 20 0 8 7 -18 12 -30 13 -30 2z"/>
<path d="M3169 1809 c-2 -29 3 -74 9 -81 4 -4 6 13 5 38 -1 43 -12 74 -14 43z"/>
<path d="M2950 1785 c-15 -18 -10 -45 12 -59 12 -7 21 -7 28 0 8 8 4 10 -12
10 -18 -1 -23 4 -23 24 0 19 5 25 22 24 12 0 20 3 17 8 -8 13 -30 9 -44 -7z"/>
<path d="M3020 1785 c-15 -18 -10 -45 12 -59 12 -7 21 -7 28 0 8 8 4 10 -12
10 -17 -1 -24 5 -26 22 -4 28 22 39 46 21 15 -13 16 -12 3 4 -16 21 -35 22
-51 2z"/>
<path d="M3106 1791 c-3 -5 2 -7 13 -4 17 4 20 -1 24 -34 l4 -38 -1 40 c-1 29
-6 41 -18 43 -9 2 -19 -1 -22 -7z"/>
<path d="M3212 1758 c1 -41 1 -41 5 -8 3 19 10 38 16 42 8 5 6 8 -5 8 -15 0
-18 -8 -16 -42z"/>
<path d="M3260 1792 c0 -6 9 -8 20 -5 29 8 25 -12 -6 -26 -32 -14 -26 -36 10
-37 25 -1 27 2 24 35 -2 29 -8 37 -25 39 -13 2 -23 -1 -23 -6z m40 -42 c0 -13
-28 -25 -38 -16 -3 4 0 11 8 16 20 13 30 12 30 0z"/>
<path d="M3337 1793 c-13 -12 -7 -23 18 -35 28 -12 23 -32 -6 -25 -11 3 -17 1
-13 -4 8 -14 30 -11 44 6 10 12 7 17 -14 26 -31 14 -35 34 -6 26 11 -3 18 -1
14 4 -6 11 -28 12 -37 2z"/>
<path d="M3410 1785 c-15 -18 -10 -45 12 -59 12 -7 21 -7 28 0 8 8 4 10 -11
10 -12 -1 -24 5 -26 12 -3 7 6 12 24 13 l28 1 -30 8 c-24 5 -27 8 -13 14 9 4
22 4 29 0 8 -4 9 -3 5 4 -10 16 -31 15 -46 -3z"/>
<path d="M3481 1755 l2 -40 6 35 c4 22 12 35 21 35 9 0 17 -13 21 -35 6 -34 6
-34 8 -5 1 39 -10 54 -37 52 -19 -1 -22 -7 -21 -42z"/>
<path d="M3566 1792 c-3 -6 2 -8 13 -5 10 3 21 0 25 -5 3 -5 -5 -13 -19 -16
-16 -4 -25 -13 -25 -26 0 -16 6 -20 30 -18 29 2 31 5 28 38 -2 27 -8 36 -25
38 -11 2 -24 -1 -27 -6z m44 -42 c0 -12 -28 -25 -36 -17 -9 9 6 27 22 27 8 0
14 -5 14 -10z"/>
<path d="M2650 1180 l0 -230 655 0 655 0 0 230 0 230 -655 0 -655 0 0 -230z
m1300 0 l0 -220 -645 0 -645 0 0 220 0 220 645 0 645 0 0 -220z"/>
<path d="M2670 1305 c0 -5 5 -17 10 -25 5 -8 10 -10 10 -5 0 6 -5 17 -10 25
-5 8 -10 11 -10 5z"/>
<path d="M2740 1289 c-7 -11 -10 -23 -7 -25 2 -2 9 7 15 21 14 30 7 33 -8 4z"/>
<path d="M2923 1260 c0 -30 2 -43 4 -27 2 15 2 39 0 55 -2 15 -4 2 -4 -28z"/>
<path d="M2813 1250 c0 -25 2 -35 4 -22 2 12 2 32 0 45 -2 12 -4 2 -4 -23z"/>
<path d="M2844 1276 c-16 -41 20 -86 47 -59 6 6 1 9 -12 9 -12 -1 -24 5 -26
12 -3 7 5 12 21 12 14 0 26 4 26 9 0 4 -11 6 -25 3 -14 -2 -25 0 -25 6 0 6 10
13 23 15 l22 4 -23 2 c-12 0 -25 -5 -28 -13z"/>
<path d="M2951 1278 c-2 -27 18 -70 29 -63 5 3 10 14 10 23 0 14 -2 15 -9 3
-7 -11 -12 -6 -19 20 -6 19 -11 26 -11 17z"/>
<path d="M2995 1279 c-4 -6 -5 -12 -2 -15 2 -3 7 2 10 11 7 17 1 20 -8 4z"/>
<path d="M3026 1282 c-3 -6 2 -8 13 -5 10 3 21 0 25 -5 3 -5 -6 -13 -20 -16
-35 -9 -28 -41 9 -42 26 -1 28 1 25 35 -2 28 -8 37 -25 39 -11 2 -24 -1 -27
-6z m44 -42 c0 -12 -28 -25 -36 -17 -9 9 6 27 22 27 8 0 14 -5 14 -10z"/>
<path d="M3135 1280 c-4 -7 2 -9 19 -4 34 8 34 -9 0 -25 -32 -14 -26 -36 10
-37 25 -1 27 2 24 35 -2 28 -8 37 -25 39 -11 2 -24 -2 -28 -8z m45 -40 c0 -13
-28 -25 -38 -16 -3 4 0 11 8 16 20 13 30 12 30 0z"/>
<path d="M3292 1248 l1 -43 4 38 c3 23 9 37 18 37 9 0 15 -14 18 -37 l4 -38
-1 40 c-1 33 -5 41 -23 43 -21 3 -23 0 -21 -40z"/>
<path d="M3365 1270 c-10 -32 4 -63 25 -57 11 3 21 0 24 -7 2 -6 5 9 5 34 1
41 -1 46 -23 48 -17 1 -27 -5 -31 -18z m40 -20 c0 -13 -6 -25 -12 -27 -16 -6
-27 21 -19 43 9 23 31 11 31 -16z"/>
<path d="M3443 1250 c0 -25 2 -35 4 -22 2 12 2 32 0 45 -2 12 -4 2 -4 -23z"/>
<path d="M3496 1281 c-4 -5 2 -7 13 -4 10 3 22 0 25 -6 5 -7 -4 -11 -23 -11
-27 0 -30 -2 -22 -22 9 -25 37 -36 53 -20 6 6 0 8 -16 5 -19 -4 -26 -1 -26 11
0 11 9 16 26 16 20 0 25 4 20 16 -3 9 -6 18 -6 20 0 8 -39 4 -44 -5z"/>
<path d="M3567 1283 c-13 -12 -7 -23 23 -38 17 -9 30 -11 30 -5 0 5 -11 12
-25 16 -14 3 -25 11 -25 16 0 6 9 8 20 5 11 -3 20 -1 20 4 0 10 -33 12 -43 2z"/>
<path d="M3646 1281 c-3 -5 3 -7 14 -4 29 8 25 -12 -6 -26 -33 -15 -26 -36 13
-38 29 -1 29 0 24 35 -6 36 -32 55 -45 33z m34 -41 c0 -13 -28 -25 -38 -16 -3
4 0 11 8 16 20 13 30 12 30 0z"/>
<path d="M3716 1278 c3 -4 11 -5 19 -1 21 7 19 12 -4 10 -11 0 -18 -5 -15 -9z"/>
<path d="M3800 1271 c0 -11 9 -23 20 -26 11 -3 20 -11 20 -17 0 -6 -9 -8 -20
-5 -11 3 -20 1 -20 -5 0 -5 10 -8 22 -6 30 4 35 34 9 43 -27 8 -27 29 -1 22
11 -3 18 -1 14 4 -10 17 -44 10 -44 -10z"/>
<path d="M3872 1257 c-2 -43 20 -60 44 -33 8 9 9 11 2 6 -23 -19 -37 -10 -41
28 l-4 37 -1 -38z"/>
<path d="M2690 1254 c0 -6 6 -18 13 -28 13 -18 14 -18 21 -1 3 10 4 20 1 23
-3 3 -5 -1 -5 -9 -1 -10 -5 -8 -15 5 -8 11 -15 15 -15 10z"/>
<path d="M2770 1220 c0 -6 7 -10 15 -10 8 0 15 2 15 4 0 2 -7 6 -15 10 -8 3
-15 1 -15 -4z"/>
<path d="M3568 1218 c6 -6 18 -8 28 -6 14 3 12 5 -9 10 -19 3 -25 2 -19 -4z"/>
<path d="M3368 1188 c5 -5 16 -8 23 -6 8 3 3 7 -10 11 -17 4 -21 3 -13 -5z"/>
<path d="M3490 1142 c0 -4 10 -9 22 -9 18 -2 20 0 8 7 -18 12 -30 13 -30 2z"/>
<path d="M3169 1129 c-2 -29 3 -74 9 -81 4 -4 6 13 5 38 -1 43 -12 74 -14 43z"/>
<path d="M2950 1105 c-15 -18 -10 -45 12 -59 12 -7 21 -7 28 0 8 8 4 10 -12
10 -18 -1 -23 4 -23 24 0 19 5 25 22 24 12 0 20 3 17 8 -8 13 -30 9 -44 -7z"/>
<path d="M3020 1105 c-15 -18 -10 -45 12 -59 12 -7 21 -7 28 0 8 8 4 10 -12
10 -17 -1 -24 5 -26 22 -4 28 22 39 46 21 15 -13 16 -12 3 4 -16 21 -35 22
-51 2z"/>
<path d="M3106 1111 c-3 -5 2 -7 13 -4 17 4 20 -1 24 -34 l4 -38 -1 40 c-1 29
-6 41 -18 43 -9 2 -19 -1 -22 -7z"/>
<path d="M3212 1078 c1 -41 1 -41 5 -8 3 19 10 38 16 42 8 5 6 8 -5 8 -15 0
-18 -8 -16 -42z"/>
<path d="M3266 1111 c-3 -5 3 -7 14 -4 29 8 25 -12 -6 -26 -32 -14 -26 -36 10
-37 25 -1 27 2 24 35 -3 35 -28 55 -42 32z m34 -41 c0 -13 -28 -25 -38 -16 -3
4 0 11 8 16 20 13 30 12 30 0z"/>
<path d="M3337 1113 c-13 -12 -7 -23 18 -35 28 -12 23 -32 -6 -25 -11 3 -17 1
-13 -4 8 -14 30 -11 44 6 10 12 7 17 -14 26 -31 14 -35 34 -6 26 11 -3 18 -1
14 4 -6 11 -28 12 -37 2z"/>
<path d="M3410 1105 c-15 -18 -10 -45 12 -59 12 -7 21 -7 28 0 8 8 4 10 -11
10 -12 -1 -24 5 -26 12 -3 7 6 12 24 13 l28 1 -30 8 c-24 5 -27 8 -13 14 9 4
22 4 29 0 8 -4 9 -3 5 4 -10 16 -31 15 -46 -3z"/>
<path d="M3481 1075 l2 -40 6 35 c4 22 12 35 21 35 9 0 17 -13 21 -35 6 -34 6
-34 8 -5 1 39 -10 54 -37 52 -19 -1 -22 -7 -21 -42z"/>
<path d="M3566 1112 c-3 -6 2 -8 13 -5 10 3 21 0 25 -5 3 -5 -6 -13 -20 -16
-35 -9 -28 -41 9 -42 26 -1 28 1 25 35 -2 28 -8 37 -25 39 -11 2 -24 -1 -27
-6z m44 -42 c0 -12 -28 -25 -36 -17 -9 9 6 27 22 27 8 0 14 -5 14 -10z"/>
<path d="M5320 590 c-18 -18 -20 -33 -20 -185 0 -152 2 -167 20 -185 19 -19
33 -20 485 -20 452 0 466 1 485 20 18 18 20 33 20 185 0 152 -2 167 -20 185
-19 19 -33 20 -485 20 -452 0 -466 -1 -485 -20z m962 -7 c16 -14 18 -34 18
-176 0 -135 -3 -163 -17 -179 -15 -17 -43 -18 -476 -18 -414 0 -462 2 -479 17
-16 14 -18 34 -18 176 0 135 3 163 17 179 15 17 43 18 476 18 414 0 462 -2
479 -17z"/>
<path d="M5473 415 c0 -38 2 -53 4 -32 2 20 2 52 0 70 -2 17 -4 1 -4 -38z"/>
<path d="M5510 398 c0 -59 18 -64 22 -5 2 29 8 42 18 42 10 0 16 -13 18 -42 4
-49 22 -59 22 -12 0 47 -16 68 -50 67 -29 -1 -30 -3 -30 -50z"/>
<path d="M5621 437 c-28 -28 -1 -97 34 -83 9 3 15 0 15 -10 0 -20 -27 -29 -45
-14 -9 8 -15 8 -15 2 0 -14 33 -24 53 -17 18 8 27 36 27 91 0 38 -2 41 -29 42
-15 0 -33 -4 -40 -11z m49 -17 c11 -20 -1 -60 -18 -60 -14 0 -32 23 -32 40 0
17 18 40 32 40 4 0 12 -9 18 -20z"/>
<path d="M5710 398 c0 -27 5 -48 10 -48 6 0 10 18 10 40 0 26 5 42 17 49 14 7
12 9 -10 8 -25 -2 -27 -5 -27 -49z"/>
<path d="M5782 438 c-7 -7 -12 -24 -12 -38 0 -46 43 -67 70 -35 15 18 -1 20
-18 3 -8 -8 -15 -8 -27 2 -24 20 -18 30 20 30 22 0 35 5 35 13 0 18 -21 37
-40 37 -9 0 -21 -5 -28 -12z m48 -13 c11 -13 8 -15 -20 -15 -28 0 -31 2 -20
15 7 8 16 15 20 15 4 0 13 -7 20 -15z"/>
<path d="M5873 434 c-7 -18 20 -44 44 -44 7 0 13 -5 13 -10 0 -17 -29 -23 -45
-10 -10 8 -15 9 -15 2 0 -17 19 -24 46 -18 36 9 31 41 -8 55 -24 9 -29 14 -20
23 9 9 15 9 24 0 17 -17 33 -15 18 3 -17 20 -49 19 -57 -1z"/>
<path d="M5969 433 c-13 -16 -12 -17 3 -4 20 15 52 7 46 -11 -3 -7 -15 -15
-29 -18 -15 -4 -24 -13 -24 -25 0 -16 7 -20 38 -20 36 -1 37 0 37 35 0 56 -41
81 -71 43z m51 -47 c0 -18 -30 -30 -43 -17 -9 9 11 23 41 30 1 1 2 -5 2 -13z"/>
<path d="M6060 399 c0 -27 5 -49 10 -49 6 0 10 18 10 40 0 26 6 42 17 48 13 8
11 10 -10 10 -26 0 -27 -3 -27 -49z"/>
</g>
</svg>
